<svg id="Logo_Positive" data-name="Logo Positive" xmlns="http://www.w3.org/2000/svg" viewBox="0 0 645.33 146.75"><defs><style>.cls-1{fill:#fff;}.cls-2{fill:#009ade;}.cls-3{fill:#ffcd00;}</style></defs><title>si-dpo3d-logo-neg</title><path class="cls-1" d="M329,117.41h3.64c1.1,0,2-.06,2.83-.1a5,5,0,0,0,2.05-.51,3.53,3.53,0,0,0,1.43-1.48,10.83,10.83,0,0,0,1-3,14.36,14.36,0,0,0,.41-3,2.08,2.08,0,0,0-.69-1.68,4.17,4.17,0,0,0-2.25-.71q-1.56-.15-4.26-.15a34.46,34.46,0,0,0-3.59.15,5,5,0,0,0-2.21.69,3.61,3.61,0,0,0-1.31,1.6,18.1,18.1,0,0,0-.92,2.85l-.25,1.31h-3.48l.25-1.31a14.09,14.09,0,0,1,1.68-4.63,7,7,0,0,1,2.6-2.5,9.55,9.55,0,0,1,3.6-1c1.38-.14,3-.21,4.73-.21s3.12,0,4.45.15a7.47,7.47,0,0,1,3.27.88,3.76,3.76,0,0,1,1.76,2.35,9.71,9.71,0,0,1-.18,4.61c-.22,1-.47,1.89-.74,2.72a7,7,0,0,1-1.15,2.21,5.27,5.27,0,0,1-1.86,1.54,7.64,7.64,0,0,1-2.85.7V119a7.46,7.46,0,0,1,2.73.61,3,3,0,0,1,1.43,1.35,4.48,4.48,0,0,1,.41,2.13,14.53,14.53,0,0,1-.39,3,15.37,15.37,0,0,1-2,5.31,7.32,7.32,0,0,1-2.95,2.62,10.57,10.57,0,0,1-4,.9c-1.48.07-3.14.1-5,.1a34.9,34.9,0,0,1-4.65-.27,7,7,0,0,1-3.19-1.12,3.94,3.94,0,0,1-1.58-2.46,10,10,0,0,1,.24-4.3l.46-2.05H322l-.45,2.05a14.67,14.67,0,0,0-.37,2.83,1.7,1.7,0,0,0,.67,1.47,4.35,4.35,0,0,0,2.13.62c1,.08,2.28.13,3.91.16,1.86,0,3.36,0,4.49-.06a5.85,5.85,0,0,0,2.7-.72,4,4,0,0,0,1.56-1.88,19.07,19.07,0,0,0,1-3.57,7.64,7.64,0,0,0,.19-3,2.21,2.21,0,0,0-1-1.51,4.27,4.27,0,0,0-2-.55c-.84-.06-1.8-.09-2.89-.09h-3.65Z"/><path class="cls-1" d="M350.86,104H365.8c.63,0,1.32,0,2.07.08a8.86,8.86,0,0,1,2.21.45,6.57,6.57,0,0,1,2,1.13,5.46,5.46,0,0,1,1.54,2.07,9.09,9.09,0,0,1,.69,3.29,18.52,18.52,0,0,1-.51,4.81l-1.55,7.34c-.11.52-.28,1.16-.5,1.92a16.77,16.77,0,0,1-2.37,5,11.45,11.45,0,0,1-2.19,2.33,10.3,10.3,0,0,1-3.05,1.68,12.05,12.05,0,0,1-4.06.64H344.34ZM360,131.62a9.58,9.58,0,0,0,3.81-.65,6.81,6.81,0,0,0,2.52-1.84,9.23,9.23,0,0,0,1.59-2.87,30.5,30.5,0,0,0,1.05-3.73l1.72-8.07a16.38,16.38,0,0,0,.2-1.88,6.16,6.16,0,0,0-.33-2.46A4.8,4.8,0,0,0,369,108a5,5,0,0,0-3.3-.92h-12l-5.2,24.57Z"/><path class="cls-1" d="M392.5,104h14.94c.63,0,1.32,0,2.07.08a8.86,8.86,0,0,1,2.21.45,6.57,6.57,0,0,1,2,1.13,5.46,5.46,0,0,1,1.54,2.07A9.09,9.09,0,0,1,416,111a18.52,18.52,0,0,1-.51,4.81l-1.55,7.34c-.11.52-.28,1.16-.5,1.92a16.77,16.77,0,0,1-2.37,5,11.45,11.45,0,0,1-2.19,2.33,10.3,10.3,0,0,1-3.05,1.68,12.05,12.05,0,0,1-4.06.64H386Zm9.09,27.64a9.58,9.58,0,0,0,3.81-.65,6.81,6.81,0,0,0,2.52-1.84,9.23,9.23,0,0,0,1.59-2.87,30.5,30.5,0,0,0,1.05-3.73l1.72-8.07a16.38,16.38,0,0,0,.2-1.88,6.16,6.16,0,0,0-.33-2.46,4.8,4.8,0,0,0-1.49-2.15,5,5,0,0,0-3.3-.92h-12l-5.2,24.57Z"/><path class="cls-1" d="M419.85,134.7h-3.48L422.88,104h3.49Z"/><path class="cls-1" d="M453.19,119.34,451.76,126a15.56,15.56,0,0,1-1.56,4.45,7.81,7.81,0,0,1-2.45,2.72,9.59,9.59,0,0,1-3.47,1.37,24.07,24.07,0,0,1-4.6.39h-3.36a29.74,29.74,0,0,1-5.22-.39,6.24,6.24,0,0,1-3.34-1.55,5.28,5.28,0,0,1-1.41-3.34,19.72,19.72,0,0,1,.51-5.74l2-9.5a19.68,19.68,0,0,1,1.77-5.18,10.72,10.72,0,0,1,2.58-3.3,8.8,8.8,0,0,1,3.23-1.72,14.12,14.12,0,0,1,3.73-.49h8.07a13,13,0,0,1,3.15.37,5.6,5.6,0,0,1,2.36,1.19,4.17,4.17,0,0,1,1.26,2.13,6.5,6.5,0,0,1-.06,3.15l-.49,2.38H451l.37-1.76a6.37,6.37,0,0,0,.16-2.17,2,2,0,0,0-.73-1.36A3.86,3.86,0,0,0,449,107a21,21,0,0,0-3.07-.19h-4.3a22,22,0,0,0-4.05.31A5.39,5.39,0,0,0,435,108.3a6.08,6.08,0,0,0-1.6,2.46,29.21,29.21,0,0,0-1.13,4.07l-2.09,9.87a13.17,13.17,0,0,0-.38,3.61,3.44,3.44,0,0,0,.84,2.19,3.85,3.85,0,0,0,2.15,1.08,18.5,18.5,0,0,0,3.58.29h3.28a29.77,29.77,0,0,0,3.76-.19,5.62,5.62,0,0,0,2.42-.79,4.23,4.23,0,0,0,1.48-1.72,14.7,14.7,0,0,0,.94-2.95l.82-3.81h-9.79l.65-3.07Z"/><path class="cls-1" d="M457.7,134.7h-3.48L460.73,104h3.48Z"/><path class="cls-1" d="M474.2,134.7h-3.48l5.86-27.65h-9.95l.65-3.07h23.39l-.66,3.07h-9.95Z"/><path class="cls-1" d="M490.75,134.7h-3.48L493.78,104h3.48Z"/><path class="cls-1" d="M524.13,107.21l-24.54,24.41h19.75l-.66,3.08h-24l.66-3,24.49-24.62H501.15l.66-3.07h23Z"/><path class="cls-1" d="M527.4,128.18l-3.76,6.52H520L537.68,104h4.92l4.95,30.72H544l-1-6.52Zm12.25-21.34L529,125.32h13.6Z"/><path class="cls-1" d="M558.94,134.7h-3.48l5.86-27.65h-10L552,104H575.4l-.65,3.07h-10Z"/><path class="cls-1" d="M575.49,134.7H572L578.52,104H582Z"/><path class="cls-1" d="M600.8,103.73a17.73,17.73,0,0,1,4.67.58,5,5,0,0,1,2.7,1.74,5.45,5.45,0,0,1,1,3.17,20.64,20.64,0,0,1-.55,4.83L606.24,125a20.47,20.47,0,0,1-1.49,4.61,9.07,9.07,0,0,1-2.36,3.09,8.93,8.93,0,0,1-3.46,1.72,19.14,19.14,0,0,1-4.77.53H590a16.52,16.52,0,0,1-4.57-.53,5.28,5.28,0,0,1-2.72-1.72,5.37,5.37,0,0,1-1.07-3.09,17.53,17.53,0,0,1,.45-4.61l2.34-10.94a23,23,0,0,1,1.51-4.83,9,9,0,0,1,2.31-3.17,8.49,8.49,0,0,1,3.44-1.74,20.8,20.8,0,0,1,4.94-.58ZM596,106.8a15.81,15.81,0,0,0-3.26.29,4.73,4.73,0,0,0-2.23,1.09,6.06,6.06,0,0,0-1.5,2.21,21.33,21.33,0,0,0-1.08,3.66L585.6,125a13.32,13.32,0,0,0-.39,3.64,3.34,3.34,0,0,0,.76,2.07,3.22,3.22,0,0,0,1.84.94,15.71,15.71,0,0,0,2.87.23h4.14a17.07,17.07,0,0,0,2.95-.23,5.18,5.18,0,0,0,2.23-.94,5.51,5.51,0,0,0,1.62-2.07,16.93,16.93,0,0,0,1.14-3.64l2.34-10.94a18.41,18.41,0,0,0,.49-3.64,3.93,3.93,0,0,0-.55-2.23,2.81,2.81,0,0,0-1.77-1.09,14,14,0,0,0-3.13-.29Z"/><path class="cls-1" d="M635.16,134.7h-5.69l-11.31-27.86h-.08l-5.94,27.86h-3.48L615.17,104h5.74L632.17,132h.08l5.94-28h3.48Z"/><path class="cls-1" d="M200.28,19.71c-7.32,0-10.55,5.32-10.55,10.45,0,6.94,4.56,10.17,12.07,14.06s16.43,8.27,16.43,18.9c0,10-8.45,18-21.09,18a28.51,28.51,0,0,1-14-3.42c-.76-2-2-10.16-2.57-14.73l2.76-.66c1.52,5.79,5.79,15.39,15.58,15.39,7.12,0,11.4-4.47,11.4-11.4S205.12,55.91,198,52.11c-6.08-3.23-15.68-8-15.68-18.72,0-9.12,7.32-16.91,19.57-16.91a39.42,39.42,0,0,1,12,2.19c.38,3.42.86,7.12,1.62,13.11l-2.76.57c-1.71-6.08-4.18-12.64-12.44-12.64Zm75.24,60V77.19c5.6-.58,6.65-1,6.65-7.7V53.62c0-6.74-2.38-11-8.36-11-3.42,0-7,1.9-10.64,4.93a22.46,22.46,0,0,1,.28,4V70.06c0,6,.86,6.55,6.08,7.13v2.47H249.2V77.19c5.89-.58,6.75-1,6.75-7.32V53.53c0-7-2.47-10.92-8.27-10.92-3.8,0-7.5,2.56-10.35,4.93V69.87c0,6.17.76,6.74,5.41,7.32v2.47h-20V77.19c6.27-.58,7.12-1.15,7.12-7.32V50.2c0-6.08-.28-6.55-5.79-7.4V40.61a57.91,57.91,0,0,0,13.2-3.89v7.69c2-1.33,4.09-3,6.94-4.84A14.13,14.13,0,0,1,252,37c4.56,0,8.64,2.85,10.54,7.79a90,90,0,0,1,7.89-5.32A13.1,13.1,0,0,1,277.51,37c7.41,0,12.07,5.23,12.07,14.54V69.87c0,6.37.76,6.74,6.17,7.32v2.47Zm24.51,0V77.19c6-.58,6.65-1.15,6.65-7.61V49.92c0-5.8-.29-6.27-6-7.12V40.52a59.84,59.84,0,0,0,13.49-3.71V69.58c0,6.46.67,7,6.75,7.61v2.47Zm9.78-50.92a5,5,0,0,1-4.75-4.85A4.89,4.89,0,0,1,309.91,19a4.75,4.75,0,0,1,4.75,4.94,4.87,4.87,0,0,1-4.85,4.85Zm32.11,46.64a13.64,13.64,0,0,0,5.89-1.61l.86,2.47-6.46,3.32a9.58,9.58,0,0,1-4,1.23c-6,0-9.31-3.79-9.31-11.3V41.85h-6.56l-.38-1,2.57-2.76h4.37V31.21l6.17-6.27,1.33.19v13h10.74a2.71,2.71,0,0,1-.57,3.71H336.41V66.26c0,7.69,3.14,9.12,5.51,9.12Zm35.72,4.28V77.19c5.51-.58,6.27-1.15,6.27-7.32V54.1c0-7.79-2.94-11.69-9.31-11.69a13.41,13.41,0,0,0-9.88,4.85V69.87c0,6.08.48,6.74,6.08,7.32v2.47H350.66l.1-2.47c5.69-.48,6.45-1,6.45-7.32V24.56c0-6-.18-6.46-6.45-7V15.34a103,103,0,0,0,14-3.32V43.94c3.33-3.42,8.46-6.94,13.59-6.94,7.69-.09,13.1,4.85,13.1,16.25V69.87c0,6.27.67,6.84,6.27,7.32v2.47ZM416.12,40c-3.62,0-6.18,2.85-6.18,6.55,0,4.18,3.8,6.46,8.08,8.27,7.12,2.94,12,6.36,12,12.92,0,8.64-8.08,13.1-15.68,13.1-4.84,0-9.21-1.8-10.92-3.23-.67-1.32-1.52-7.79-1.52-11.21l2.47-.47c1.71,6.27,6,11.78,11.68,11.78A6.62,6.62,0,0,0,422.76,71c0-4.18-2.75-6.46-7.5-8.64-5.7-2.67-11.87-5.8-11.87-13.12,0-6.64,5.69-12.25,14.44-12.25a20.5,20.5,0,0,1,8.45,1.62,72,72,0,0,1,2.09,10.16l-2.47.57c-1.8-5.6-5.13-9.4-9.78-9.4ZM457,80.79c-13,0-20.8-10.44-20.8-21,0-15.68,12.16-22.8,20.8-22.8h.1c11.68,0,20.52,9.41,20.52,21.19,0,15.29-11.21,22.6-20.62,22.6ZM456,40.14h-.09C450.12,40.14,445,46,445,56.76c0,12,5.23,20.9,13,20.9,5.89,0,10.73-4.37,10.73-17.39,0-11.11-4.46-20.13-12.73-20.13Zm52.92,39.52V77.19c5.6-.58,6.27-1.34,6.27-7.89V53.43c0-6.55-2.28-10.82-8.65-10.82-3.8,0-7.5,2.37-10.35,4.84V69.77c0,6.47.57,6.84,6.17,7.42v2.47H481.76V77.19c6.46-.67,6.93-1.15,6.93-7.42V50.11c0-6.08-.57-6.36-5.7-7.31V40.61a56.92,56.92,0,0,0,13.21-3.89v7.6c1.9-1.43,4-2.85,6.36-4.47,2.66-1.71,5.13-2.85,7.89-2.85,7.5,0,12.25,5.23,12.25,14.44V69.77c0,6.47.48,6.84,6,7.42v2.47Zm24.13,0V77.19c6-.58,6.65-1.15,6.65-7.61V49.92c0-5.8-.29-6.27-6-7.12V40.52a59.84,59.84,0,0,0,13.49-3.71V69.58c0,6.46.67,7,6.75,7.61v2.47Zm9.78-50.92a5,5,0,0,1-4.75-4.85A4.89,4.89,0,0,1,542.94,19a4.75,4.75,0,0,1,4.75,4.94,4.87,4.87,0,0,1-4.85,4.85Zm45,52.05a7.73,7.73,0,0,1-4.46-1.8,9.76,9.76,0,0,1-2.28-4.28c-3.8,2.57-8.36,6.08-11.21,6.08a11.46,11.46,0,0,1-11.4-11.58c0-4.66,2.47-7.6,7.69-9.41,5.7-1.9,12.64-4.47,14.73-6.18V51.91c0-6.84-3.23-10.73-8-10.73a5.37,5.37,0,0,0-4.28,1.9c-1.23,1.24-2.09,3.33-2.85,6.17a2.64,2.64,0,0,1-2.75,2.29c-1.71,0-4.18-1.9-4.18-4.09,0-1.42,1.23-2.47,3-3.8,2.66-1.9,8.83-5.6,14.25-6.65A12.39,12.39,0,0,1,584,39.57c3.32,2.75,4.27,6.65,4.27,11.59V68.82c0,4.28,1.71,5.71,3.33,5.71a7.22,7.22,0,0,0,3.42-1L596,76l-8.08,4.84Zm-6.93-23.94c-2,1-6.56,3-8.55,4-3.71,1.71-5.8,3.51-5.8,6.93a7,7,0,0,0,6.75,7.31,13.57,13.57,0,0,0,7.6-3.42V56.85Zm43.7,22.81V77.19c5.6-.58,6.27-1.34,6.27-7.89V53.43c0-6.55-2.28-10.82-8.65-10.82-3.8,0-7.5,2.37-10.35,4.84V69.77c0,6.47.57,6.84,6.17,7.42v2.47H597.47V77.19c6.46-.67,6.93-1.15,6.93-7.42V50.11c0-6.08-.57-6.36-5.7-7.31V40.61a56.92,56.92,0,0,0,13.21-3.89v7.6c1.9-1.43,4-2.85,6.36-4.47,2.66-1.71,5.13-2.85,7.89-2.85,7.5,0,12.25,5.23,12.25,14.44V69.77c0,6.47.48,6.84,6,7.42v2.47Z"/><circle class="cls-2" cx="73.77" cy="73.49" r="72.35"/><path class="cls-3" d="M117.38,88.23c-4.67-8.07-12.07-8.17-13-8.15v0l31.23-6.44-31.21-6.56v0a25.32,25.32,0,0,1,15.51-5.75c6.87-.09,12.83-8.49,9-15,0,0-1.15,10.15-14,6.74-9-2.4-14.32,2.76-14.94,3.42h0L117.6,29.83,90.88,47.26h0a25.17,25.17,0,0,1,6.89-15c4.79-4.92,3.07-15.07-4.17-17,0,0,6.36,8-5.1,14.63-8.07,4.68-8.17,12.08-8.16,13h0L73.88,11.62,67.32,42.83a0,0,0,0,1,0,0,25.26,25.26,0,0,1-5.76-15.51c-.09-6.87-8.49-12.84-14.95-9.06,0,0,10.14,1.15,6.74,14-2.41,9,2.79,14.34,3.42,15h0L30.1,29.66h0L44.31,51.43l3.22,4.94h0a25.21,25.21,0,0,1-15.05-6.9c-4.92-4.79-15.08-3.07-17,4.18,0,0,8-6.37,14.63,5.1,4.69,8.09,12.12,8.17,13,8.15h0L11.9,73.37l31.21,6.57h0a25.2,25.2,0,0,1-15.52,5.77c-6.87.09-12.83,8.48-9,15,0,0,1.15-10.15,14-6.74,9,2.41,14.36-2.81,15-3.43l0,0L29.94,117.15,56.65,99.73a25.24,25.24,0,0,1-6.9,15c-4.79,4.92-3.07,15.07,4.18,17,0,0-6.37-8,5.1-14.63,8.08-4.69,8.17-12.11,8.15-13h0l6.45,31.23,6.56-31.2h0A25.25,25.25,0,0,1,86,119.66c.08,6.87,8.48,12.83,15,9.05,0,0-10.15-1.14-6.74-14,2.4-9-2.79-14.34-3.43-15h0l26.65,17.53-9.2-14.11L100,90.6h0a25.28,25.28,0,0,1,15,6.9c4.92,4.79,15.08,3.08,17-4.17C132,93.33,124,99.69,117.38,88.23Z"/></svg>