<svg id="Layer_1" data-name="Layer 1" xmlns="http://www.w3.org/2000/svg" viewBox="0 0 83.1 83.1"><defs><style>.cls-1{fill:#bfbfbf;}</style></defs><title>voyager-75grey</title><path class="cls-1" d="M72.18,13.48,67.1,18.57c.5,3.19,1.23,12.48-4.76,23L42.66,21.89c10.21-5.84,19.21-5.31,22.68-4.8l5.25-5.25a41.5,41.5,0,1,0,1.59,1.64ZM7.48,52.91s-2.35-12.84,9-24.14c6.6-6.6,14.83-1.45,14.83-1.45A98.12,98.12,0,0,0,17.51,48.47C10.19,49.11,7.48,52.91,7.48,52.91Zm13.83,15.5V65.7l-6,3.07,2.81-6.24-3.53,1.18,2.53-6,9.31,9.31Zm34.17-.59c-11.3,11.3-24.14,9-24.14,9s3.8-2.71,4.43-10A97.8,97.8,0,0,0,56.93,53S62.08,61.22,55.48,67.82ZM54.7,51.5c-5.88,5.88-24.82,15.88-24.82,15.88l-13-13s9.9-18.86,15.86-24.82a48.27,48.27,0,0,1,8-6.47L61.16,43.48A47.53,47.53,0,0,1,54.7,51.5Z"/><path class="cls-1" d="M39.34,44.88a5.88,5.88,0,1,0,0-8.32A5.9,5.9,0,0,0,39.34,44.88Z"/></svg>