<svg version="1.1" id="Calque_1" xmlns="http://www.w3.org/2000/svg" xmlns:xlink="http://www.w3.org/1999/xlink" x="0px" y="0px"
	 viewBox="0 0 161 161" xml:space="preserve">
  <path
     style="stroke-width:1.40;fill:#5bc5f2"
     d="M82.02 53.44C86.63 53.44 91.25 53.44 95.85 53.44C95.85 71.29 95.85 89.13 95.85 107.0C91.22 107.0 86.57 107.0 81.93 107.0C81.93 99.63 81.93 92.29 81.93 84.94C75.24 84.94 68.56 84.94 61.86 84.94C61.86 88.25 61.86 91.54 61.86 94.85C75.96 103.4 90.07 112.0 104.2 120.6C104.2 93.71 104.2 66.84 104.2 39.97C96.79 44.46 89.4 48.96 82.02 53.44C82.02 53.44 82.02 53.44 82.02 53.44M47.94 74.18C44.6 76.21 41.25 78.25 37.9 80.28C41.25 82.32 44.6 84.35 47.94 86.38C47.94 82.31 47.94 78.25 47.94 74.18C47.94 74.18 47.94 74.18 47.94 74.18M81.93 53.5C75.24 57.57 68.56 61.64 61.86 65.71C61.86 68.53 61.86 71.34 61.86 74.16C68.56 74.16 75.24 74.16 81.93 74.16C81.93 67.28 81.93 60.38 81.93 53.5C81.93 53.5 81.93 53.5 81.93 53.5"
     id="polygon3684" /><path
     style="stroke-width:1.40;fill:##009fe"
     d="M81.93 85.51C82.17 84.75 81.45 84.95 80.94 84.94C74.58 84.94 68.22 84.94 61.86 84.94C61.86 89.2 61.86 93.46 61.86 97.72C68.56 93.65 75.24 89.58 81.93 85.51C81.93 85.51 81.93 85.51 81.93 85.51M81.93 73.91C75.24 69.84 68.56 65.77 61.86 61.7C61.86 65.85 61.86 70.01 61.86 74.16C68.56 74.16 75.24 74.16 81.93 74.16C81.93 74.06 81.93 73.99 81.93 73.91C81.93 73.91 81.93 73.91 81.93 73.91"
     id="polygon3708" />
</svg>
