<svg id="Layer_1" data-name="Layer 1" xmlns="http://www.w3.org/2000/svg" viewBox="0 0 381 83.61"><title>voyager-pos</title><path d="M72.33,13.63l-5.09,5.08c.5,3.2,1.23,12.49-4.76,23L42.8,22C53,16.19,62,16.72,65.48,17.24L70.73,12a41.47,41.47,0,1,0,1.6,1.65ZM7.62,53.05s-2.35-12.84,9-24.14c6.6-6.6,14.83-1.45,14.83-1.45A97.8,97.8,0,0,0,17.66,48.62C10.33,49.25,7.62,53.05,7.62,53.05Zm13.83,15.5V65.84l-6,3.08,2.8-6.24-3.52,1.17,2.53-6,9.31,9.31ZM55.62,68c-11.3,11.3-24.14,9-24.14,9s3.8-2.71,4.44-10A98.31,98.31,0,0,0,57.07,53.14S62.22,61.36,55.62,68Zm-.78-16.31C49,57.52,30,67.52,30,67.52l-13-13s9.9-18.86,15.86-24.82a48.42,48.42,0,0,1,8-6.47L61.3,43.63A47.82,47.82,0,0,1,54.84,51.65Z"/><path d="M39.48,45a5.88,5.88,0,1,0,0-8.32A5.89,5.89,0,0,0,39.48,45Z"/><path d="M131.67,23.12,121.4,66.82H108L97.74,23.12H92.16V16.56H113.8v6.56h-5.52L114.7,58l7.68-41.47h14.94v6.56Z"/><path d="M155,67.52c-7.54,0-17.45-2.23-17.45-25.83S148.06,15.86,155,15.86s17.45,2.38,17.45,25.83C172.42,65.5,162.3,67.52,155,67.52Zm0-44.68c-4.89,0-7.68,3.91-7.68,18.85,0,15.15,3.56,18.85,7.68,18.85s7.68-3.49,7.68-18.85C162.65,27,159.71,22.84,155,22.84Z"/><path d="M209.86,23.12,199,48.25v12h7.68v6.56H181.59V60.26h7.68v-12L178.45,23.12h-5.59V16.56h21v6.56h-4.82l5.1,14.94,7.4-21.5h14v6.56Z"/><path d="M243.82,66.82l-2.66-12.28H228.74l-1.26,5.72H233v6.56H211.78V60.26h5.58l10.75-43.7h13.68l10.75,43.7h5.66v6.56ZM235,24.17,230.27,47h9.36Z"/><path d="M278.78,67.52c-9.57,0-19.69-3.21-19.69-25.13s11.31-26.53,21-26.53A31.9,31.9,0,0,1,294,19.08V30.24h-6.56V24.8a28.73,28.73,0,0,0-7.33-1.05c-5,0-11.24,3.35-11.24,17.94,0,15.43,5.38,18,9.78,18a27.22,27.22,0,0,0,5.58-.63V44.28h-6.63V36.81H294v28.9A88.48,88.48,0,0,1,278.78,67.52Z"/><path d="M299.07,66.82V60.26h6.29V23.12h-6.29V16.56h33.51V30.24H326V24.87H315.13V36.81h14.66v7.54H315.13V58.52H326V52.44h6.56V66.82Z"/><path d="M366.93,66.82,358.62,45h-5.1V60.26h5.59v6.56H337.47V60.26h6.28V23.12h-6.28V16.56h20.38c10.47,0,17.31,2.65,17.31,13.47,0,5.66-1.6,10.2-7.6,12.85l7.53,17.38h5.59v6.56Zm-9.57-42.51h-3.84V38.2c8.31,0,11.87-1.88,11.87-7.47C365.39,26.61,363.58,24.31,357.36,24.31Z"/></svg>